<svg width="24" height="24" viewBox="0 0 24 24" fill="none" xmlns="http://www.w3.org/2000/svg">
<g clip-path="url(#clip0_7_1686)">
<path d="M23.0001 15.9998C22.7349 15.9998 22.4805 16.1052 22.293 16.2927C22.1055 16.4803 22.0001 16.7346 22.0001 16.9998V18.9998C22.0001 19.7955 21.684 20.5586 21.1214 21.1212C20.5588 21.6838 19.7958 21.9998 19.0001 21.9998H17.0001C16.7349 21.9998 16.4805 22.1052 16.293 22.2927C16.1055 22.4803 16.0001 22.7346 16.0001 22.9998C16.0001 23.265 16.1055 23.5194 16.293 23.7069C16.4805 23.8945 16.7349 23.9998 17.0001 23.9998H19.0001C20.3257 23.9982 21.5966 23.471 22.5339 22.5336C23.4712 21.5963 23.9985 20.3254 24.0001 18.9998V16.9998C24.0001 16.7346 23.8948 16.4803 23.7072 16.2927C23.5197 16.1052 23.2653 15.9998 23.0001 15.9998Z" fill="#FFFFFF"/>
<path d="M7 0H5C3.67441 0.00158786 2.40356 0.528882 1.46622 1.46622C0.528882 2.40356 0.00158786 3.67441 0 5L0 7C0 7.26522 0.105357 7.51957 0.292893 7.70711C0.48043 7.89464 0.734784 8 1 8C1.26522 8 1.51957 7.89464 1.70711 7.70711C1.89464 7.51957 2 7.26522 2 7V5C2 4.20435 2.31607 3.44129 2.87868 2.87868C3.44129 2.31607 4.20435 2 5 2H7C7.26522 2 7.51957 1.89464 7.70711 1.70711C7.89464 1.51957 8 1.26522 8 1C8 0.734784 7.89464 0.48043 7.70711 0.292893C7.51957 0.105357 7.26522 0 7 0V0Z" fill="#FFFFFF"/>
<path d="M7 21.9998H5C4.20435 21.9998 3.44129 21.6838 2.87868 21.1212C2.31607 20.5586 2 19.7955 2 18.9998V16.9998C2 16.7346 1.89464 16.4803 1.70711 16.2927C1.51957 16.1052 1.26522 15.9998 1 15.9998C0.734784 15.9998 0.48043 16.1052 0.292893 16.2927C0.105357 16.4803 0 16.7346 0 16.9998L0 18.9998C0.00158786 20.3254 0.528882 21.5963 1.46622 22.5336C2.40356 23.471 3.67441 23.9982 5 23.9998H7C7.26522 23.9998 7.51957 23.8945 7.70711 23.7069C7.89464 23.5194 8 23.265 8 22.9998C8 22.7346 7.89464 22.4803 7.70711 22.2927C7.51957 22.1052 7.26522 21.9998 7 21.9998Z" fill="#FFFFFF"/>
<path d="M19.0001 0H17.0001C16.7349 0 16.4805 0.105357 16.293 0.292893C16.1055 0.48043 16.0001 0.734784 16.0001 1C16.0001 1.26522 16.1055 1.51957 16.293 1.70711C16.4805 1.89464 16.7349 2 17.0001 2H19.0001C19.7958 2 20.5588 2.31607 21.1214 2.87868C21.684 3.44129 22.0001 4.20435 22.0001 5V7C22.0001 7.26522 22.1055 7.51957 22.293 7.70711C22.4805 7.89464 22.7349 8 23.0001 8C23.2653 8 23.5197 7.89464 23.7072 7.70711C23.8948 7.51957 24.0001 7.26522 24.0001 7V5C23.9985 3.67441 23.4712 2.40356 22.5339 1.46622C21.5966 0.528882 20.3257 0.00158786 19.0001 0V0Z" fill="#FFFFFF"/>
</g>
<defs>
<clipPath id="clip0_7_1686">
<rect width="24" height="24" fill="white"/>
</clipPath>
</defs>
</svg>
